<svg width="22" height="22" viewBox="0 0 22 22" fill="none" xmlns="http://www.w3.org/2000/svg">
<g id="bill">
<g id="file">
<path id="Vector 1" d="M2.75 18.1666V3.83325C2.75 2.72868 3.64543 1.83325 4.75 1.83325H15.5833H17.25C18.3546 1.83325 19.25 2.72868 19.25 3.83325V5.49992V18.1666C19.25 19.2712 18.3546 20.1666 17.25 20.1666H4.75C3.64543 20.1666 2.75 19.2712 2.75 18.1666Z" stroke="#121219"/>
<path id="Vector 32" d="M15.5833 1.83325V3.49992C15.5833 4.60449 16.4787 5.49992 17.5833 5.49992H19.2499" stroke="#121219" stroke-linecap="round"/>
</g>
<g id="list">
<path id="Vector" d="M8.97339 8.97363L16.4997 8.97363" stroke="#121219" stroke-linecap="round"/>
<path id="Vector_2" d="M8.97339 12.4475L16.4997 12.4475" stroke="#121219" stroke-linecap="round"/>
<path id="Vector_3" d="M8.97339 15.9211L16.4997 15.9211" stroke="#121219" stroke-linecap="round"/>
<g id="dots">
<path id="Vector_4" d="M6.22368 13.171C6.62336 13.171 6.94737 12.847 6.94737 12.4473C6.94737 12.0476 6.62336 11.7236 6.22368 11.7236C5.824 11.7236 5.5 12.0476 5.5 12.4473C5.5 12.847 5.824 13.171 6.22368 13.171Z" fill="#121219"/>
<path id="Vector_5" d="M6.22368 9.69737C6.62336 9.69737 6.94737 9.37336 6.94737 8.97368C6.94737 8.574 6.62336 8.25 6.22368 8.25C5.824 8.25 5.5 8.574 5.5 8.97368C5.5 9.37336 5.824 9.69737 6.22368 9.69737Z" fill="#121219"/>
<path id="Vector_6" d="M6.22368 16.6449C6.62336 16.6449 6.94737 16.3209 6.94737 15.9212C6.94737 15.5215 6.62336 15.1975 6.22368 15.1975C5.824 15.1975 5.5 15.5215 5.5 15.9212C5.5 16.3209 5.824 16.6449 6.22368 16.6449Z" fill="#121219"/>
</g>
</g>
</g>
</svg>
