<svg width="16" height="16" viewBox="0 0 16 16" fill="none" xmlns="http://www.w3.org/2000/svg">
<g id="calendar">
<path id="Vector" d="M4.11133 1V4.1111" stroke="#CECECE" stroke-linecap="round"/>
<path id="Vector_2" d="M11.8887 1V4.1111" stroke="#CECECE" stroke-linecap="round"/>
<path id="Vector 4" d="M15 12.9998V4.55542C15 3.45085 14.1046 2.55542 13 2.55542H3.00003C1.89546 2.55542 1.00003 3.45085 1.00003 4.55542V12.9998C1.00003 14.1044 1.89546 14.9998 3.00003 14.9998H13C14.1046 14.9998 15 14.1044 15 12.9998Z" stroke="#CECECE"/>
<path id="Vector_3" d="M4.11176 8.00013C4.54131 8.00013 4.88954 7.65191 4.88954 7.22236C4.88954 6.7928 4.54131 6.44458 4.11176 6.44458C3.68221 6.44458 3.33398 6.7928 3.33398 7.22236C3.33398 7.65191 3.68221 8.00013 4.11176 8.00013Z" fill="#DCDCDC"/>
<path id="Vector_4" d="M8.00043 8.00013C8.42999 8.00013 8.77821 7.65191 8.77821 7.22236C8.77821 6.7928 8.42999 6.44458 8.00043 6.44458C7.57088 6.44458 7.22266 6.7928 7.22266 7.22236C7.22266 7.65191 7.57088 8.00013 8.00043 8.00013Z" fill="#DCDCDC"/>
<path id="Vector_5" d="M11.8891 8.00013C12.3187 8.00013 12.6669 7.65191 12.6669 7.22236C12.6669 6.7928 12.3187 6.44458 11.8891 6.44458C11.4596 6.44458 11.1113 6.7928 11.1113 7.22236C11.1113 7.65191 11.4596 8.00013 11.8891 8.00013Z" fill="#DCDCDC"/>
<path id="Vector_6" d="M4.11176 12.6664C4.54131 12.6664 4.88954 12.3182 4.88954 11.8886C4.88954 11.4591 4.54131 11.1108 4.11176 11.1108C3.68221 11.1108 3.33398 11.4591 3.33398 11.8886C3.33398 12.3182 3.68221 12.6664 4.11176 12.6664Z" fill="#DCDCDC"/>
<path id="Vector_7" d="M8.00043 12.6664C8.42999 12.6664 8.77821 12.3182 8.77821 11.8886C8.77821 11.4591 8.42999 11.1108 8.00043 11.1108C7.57088 11.1108 7.22266 11.4591 7.22266 11.8886C7.22266 12.3182 7.57088 12.6664 8.00043 12.6664Z" fill="#DCDCDC"/>
<path id="Vector_8" d="M11.8891 12.6664C12.3187 12.6664 12.6669 12.3182 12.6669 11.8886C12.6669 11.4591 12.3187 11.1108 11.8891 11.1108C11.4596 11.1108 11.1113 11.4591 11.1113 11.8886C11.1113 12.3182 11.4596 12.6664 11.8891 12.6664Z" fill="#DCDCDC"/>
</g>
</svg>
