<svg width="18" height="19" viewBox="0 0 18 19" fill="none" xmlns="http://www.w3.org/2000/svg">
<g id="Group 4843">
<path id="Fill 1" d="M11.1763 3.34103C10.7479 3.26188 10.3544 3.53529 10.2728 3.9535C10.1913 4.37171 10.4655 4.78002 10.8823 4.86186C12.1371 5.10649 13.106 6.07781 13.3516 7.33693V7.33783C13.4215 7.70028 13.7406 7.9638 14.1081 7.9638C14.1574 7.9638 14.2067 7.9593 14.2569 7.9503C14.6736 7.86666 14.9479 7.45925 14.8664 7.04014C14.4998 5.15956 13.0522 3.70707 11.1763 3.34103Z" fill="white"/>
<path id="Fill 3" d="M11.1203 0.207576C10.9195 0.178796 10.7179 0.238155 10.5574 0.365865C10.3925 0.495375 10.2894 0.682444 10.267 0.891998C10.2195 1.3156 10.5251 1.69873 10.9482 1.7464C13.8657 2.07197 16.1333 4.34468 16.4613 7.27124C16.5053 7.66336 16.8342 7.95926 17.2268 7.95926C17.2564 7.95926 17.285 7.95746 17.3146 7.95386C17.5199 7.93138 17.7027 7.82975 17.8318 7.66786C17.96 7.50597 18.0182 7.30451 17.9949 7.09856C17.5862 3.44711 14.7602 0.613193 11.1203 0.207576Z" fill="white"/>
<path id="Stroke 1" fill-rule="evenodd" clip-rule="evenodd" d="M8.12847 10.0754C11.7186 13.6645 12.533 9.51228 14.8189 11.7965C17.0226 13.9997 18.2892 14.4411 15.4971 17.2324C15.1474 17.5135 12.9253 20.8949 5.11608 13.0879C-2.6941 5.27989 0.685418 3.05552 0.966561 2.70588C3.76543 -0.0931823 4.19922 1.18079 6.40296 3.38391C8.68882 5.66913 4.53834 6.48625 8.12847 10.0754Z" fill="white"/>
</g>
</svg>
