<svg width="28" height="28" viewBox="0 0 28 28" fill="none" xmlns="http://www.w3.org/2000/svg">
<g id="icon_youtube" clip-path="url(#clip0_2323_1050)">
<path id="Vector" d="M16.2447 13.7663L13.1003 12.2991C12.8259 12.1717 12.6005 12.3145 12.6005 12.6183V15.3819C12.6005 15.6857 12.8259 15.8285 13.1003 15.7011L16.2433 14.2339C16.5191 14.1051 16.5191 13.8951 16.2447 13.7663ZM14.0005 0.560059C6.57775 0.560059 0.560547 6.57726 0.560547 14.0001C0.560547 21.4229 6.57775 27.4401 14.0005 27.4401C21.4233 27.4401 27.4405 21.4229 27.4405 14.0001C27.4405 6.57726 21.4233 0.560059 14.0005 0.560059ZM14.0005 19.4601C7.12095 19.4601 7.00055 18.8399 7.00055 14.0001C7.00055 9.16026 7.12095 8.54006 14.0005 8.54006C20.8801 8.54006 21.0005 9.16026 21.0005 14.0001C21.0005 18.8399 20.8801 19.4601 14.0005 19.4601Z" fill="#871716"/>
</g>
<defs>
<clipPath id="clip0_2323_1050">
<rect width="28" height="28" fill="white"/>
</clipPath>
</defs>
</svg>
