<svg width="18" height="17" viewBox="0 0 18 17" fill="none" xmlns="http://www.w3.org/2000/svg">
<g id="Group">
<path id="Fill 1" d="M18 11.6466C18 14.1576 15.984 16.1916 13.473 16.2006H13.464H4.545C2.043 16.2006 0 14.1756 0 11.6646V11.6556C0 11.6556 0.0054 7.67219 0.0126 5.66879C0.0135 5.29259 0.4455 5.08199 0.7398 5.31599C2.8782 7.01249 6.7023 10.1058 6.75 10.1463C7.389 10.6584 8.199 10.9473 9.027 10.9473C9.855 10.9473 10.665 10.6584 11.304 10.1364C11.3517 10.1049 15.0903 7.10429 17.2611 5.37989C17.5563 5.14499 17.9901 5.35559 17.991 5.73089C18 7.71899 18 11.6466 18 11.6466Z" fill="white"/>
<path id="Fill 4" d="M17.5285 2.4066C16.7491 0.9378 15.2155 0 13.5271 0H4.54514C2.85674 0 1.32314 0.9378 0.543739 2.4066C0.369139 2.7351 0.451939 3.1446 0.742639 3.3768L7.42514 8.7219C7.89314 9.0999 8.46014 9.288 9.02714 9.288C9.03074 9.288 9.03344 9.288 9.03614 9.288C9.03884 9.288 9.04244 9.288 9.04514 9.288C9.61214 9.288 10.1791 9.0999 10.6471 8.7219L17.3296 3.3768C17.6203 3.1446 17.7031 2.7351 17.5285 2.4066Z" fill="white"/>
</g>
</svg>
