<svg width="28" height="28" viewBox="0 0 28 28" fill="none" xmlns="http://www.w3.org/2000/svg">
<g id="icon_twitter" clip-path="url(#clip0_2323_1045)">
<path id="Vector" d="M14.0005 0.560059C6.57775 0.560059 0.560547 6.57726 0.560547 14.0001C0.560547 21.4229 6.57775 27.4401 14.0005 27.4401C21.4233 27.4401 27.4405 21.4229 27.4405 14.0001C27.4405 6.57726 21.4233 0.560059 14.0005 0.560059ZM19.4675 11.5697C19.4731 11.6845 19.4745 11.7993 19.4745 11.9113C19.4745 15.4113 16.8131 19.4447 11.9439 19.4447C10.5052 19.4471 9.0963 19.0338 7.88675 18.2547C8.09255 18.2799 8.30395 18.2897 8.51815 18.2897C9.75855 18.2897 10.8995 17.8683 11.8053 17.1571C11.2534 17.1462 10.7185 16.9634 10.2753 16.6342C9.83212 16.3049 9.5027 15.8456 9.33295 15.3203C9.72936 15.3956 10.1377 15.3798 10.5271 15.2741C9.92801 15.1529 9.38922 14.8283 9.00214 14.3552C8.61505 13.8821 8.4035 13.2897 8.40335 12.6785V12.6463C8.76035 12.8437 9.16915 12.9641 9.60315 12.9781C9.04146 12.6042 8.64385 12.0298 8.49161 11.3724C8.33937 10.7151 8.44402 10.0244 8.78415 9.44166C9.44908 10.2593 10.2783 10.9281 11.2181 11.4049C12.158 11.8817 13.1875 12.1558 14.2399 12.2095C14.1061 11.6415 14.1637 11.0452 14.4038 10.5134C14.6438 9.9815 15.0528 9.54384 15.5672 9.26843C16.0817 8.99301 16.6727 8.89527 17.2484 8.9904C17.8241 9.08553 18.3523 9.36819 18.7507 9.79446C19.3432 9.67724 19.9113 9.45993 20.4307 9.15186C20.2333 9.76525 19.8199 10.2861 19.2673 10.6177C19.7921 10.5545 20.3046 10.4134 20.7877 10.1991C20.4328 10.7309 19.9857 11.1951 19.4675 11.5697Z" fill="#871716"/>
</g>
<defs>
<clipPath id="clip0_2323_1045">
<rect width="28" height="28" fill="white"/>
</clipPath>
</defs>
</svg>
