<svg width="16" height="19" viewBox="0 0 16 19" fill="none" xmlns="http://www.w3.org/2000/svg">
<path id="Vector" d="M13.444 13.6499C14.9209 12.1722 15.7506 10.1683 15.7506 8.07902C15.7506 5.9897 14.9209 3.9859 13.444 2.50814C12.7128 1.77654 11.8447 1.19618 10.8893 0.800212C9.93376 0.404246 8.90961 0.200439 7.87532 0.200439C6.84103 0.200439 5.81688 0.404246 4.86139 0.800212C3.9059 1.19618 3.0378 1.77654 2.30669 2.50814C0.8297 3.9859 0 5.9897 0 8.07902C0 10.1683 0.8297 12.1722 2.30669 13.6499L4.01778 15.3362L6.31611 17.5693L6.46573 17.7021C7.33758 18.4086 8.61443 18.3636 9.43566 17.5693L12.175 14.9031L13.444 13.6499ZM7.87532 11.4506C6.98024 11.4506 6.12181 11.095 5.48889 10.4621C4.85597 9.82916 4.50039 8.97074 4.50039 8.07565C4.50039 7.18056 4.85597 6.32214 5.48889 5.68921C6.12181 5.05629 6.98024 4.70072 7.87532 4.70072C8.77041 4.70072 9.62884 5.05629 10.2618 5.68921C10.8947 6.32214 11.2503 7.18056 11.2503 8.07565C11.2503 8.97074 10.8947 9.82916 10.2618 10.4621C9.62884 11.095 8.77041 11.4506 7.87532 11.4506Z" fill="white"/>
</svg>
